<?xml version="1.0" encoding="UTF-8"?>
<svg version="1.0" viewBox="0 0 18 20" xmlns="http://www.w3.org/2000/svg">
<g transform="translate(.0066 .0031254)">
<g transform="translate(-230.95 -533.66)">
<path d="m248.26 536.8c0.00767 0.36938-0.14955 0.73865-0.43121 0.97985-0.36025 0.32891-0.90945 0.39628-1.3583 0.22886-0.44485-0.17177-0.7737-0.61188-0.79903-1.0901-0.03378-0.37371 0.0854-0.76581 0.35602-1.0319 0.2551-0.27187 0.63497-0.4047 1.004-0.38222 0.37984 0.00807 0.74658 0.19956 0.97342 0.50374 0.17473 0.22433 0.25749 0.50935 0.2551 0.79181z"/>
</g>
<g transform="translate(-230.95 -533.66)">
<path d="m248.26 542.65c0.00773 0.36967-0.14923 0.73944-0.43121 0.98083-0.36025 0.32891-0.90945 0.39628-1.3583 0.22887-0.44511-0.17184-0.77393-0.61235-0.79903-1.0908-0.03494-0.37399 0.09209-0.76081 0.35555-1.0309 0.24963-0.27846 0.6336-0.4051 1.0014-0.3835 0.48385 0.01332 0.92314 0.34301 1.1232 0.77515 0.07403 0.16275 0.10881 0.34192 0.10837 0.52037z"/>
</g>
<g transform="translate(-230.95 -533.66)">
<path d="m243.98 540.87c0.04498 2.8246-1.2154 5.5702-3.2143 7.5365-2.4894 2.4883-5.7468 4.0708-9.0671 5.1281-0.44172 0.23921-1.1079-0.07618-0.41212-0.40117 1.338-0.60855 2.7277-1.1309 3.9601-1.9506 2.7224-1.6833 5.0196-4.3341 5.5772-7.5623 0.32492-1.965 0.23445-4.0106-0.25795-5.94-0.36132-1.4186-1.3445-2.883-2.9013-3.0926-1.4128-0.21626-2.9147 0.27318-3.923 1.2951-0.26516 0.26874-0.78141 1.0131-0.69622 1.8665 0.60202-0.47279 0.56093-0.42015 1.0546-0.6403 1.1367-0.50686 2.6445 0.21388 2.928 1.4656 0.30209 1.1502 0.06851 2.6137-1.0666 3.2269-1.1852 0.64453-2.9342 0.37778-3.5959-0.89094-1.0953-1.9545-0.49303-4.6267 1.2775-5.983 1.8031-1.4965 4.4341-1.5548 6.5576-0.78709 2.1846 0.81249 3.4867 3.0762 3.6973 5.3183 0.05728 0.46798 0.08205 0.93974 0.08209 1.411z"/>
</g>
</g>
</svg>
